<svg id="SvgjsSvg1011" width="288" height="288" xmlns="http://www.w3.org/2000/svg" version="1.1" xmlns:xlink="http://www.w3.org/1999/xlink" xmlns:svgjs="http://svgjs.com/svgjs"><defs id="SvgjsDefs1012"></defs><g id="SvgjsG1013"><svg xmlns="http://www.w3.org/2000/svg" enable-background="new 0 0 512 512" viewBox="0 0 512 512" width="288" height="288"><path d="M511,256C511,115.167,396.833,1,256,1S1,115.167,1,256s114.167,255,255,255c57.278,0,110.144-18.886,152.713-50.769
			l46.595,46.595l51.518-51.518l-46.595-46.595C492.114,366.144,511,313.278,511,256z M407.959,356.439l-37.99-37.99l-51.52,51.52
			l37.99,37.99C327.65,427.038,293.115,438.143,256,438.143c-100.595,0-182.143-81.548-182.143-182.143S155.405,73.857,256,73.857
			S438.143,155.405,438.143,256C438.143,293.115,427.038,327.65,407.959,356.439z" fill="#0031ae" class="color000 svgShape"></path></svg></g></svg>